<?xml version="1.0" encoding="UTF-8" standalone="no"?>
<svg
   xmlns:dc="http://purl.org/dc/elements/1.1/"
   xmlns:cc="http://creativecommons.org/ns#"
   xmlns:rdf="http://www.w3.org/1999/02/22-rdf-syntax-ns#"
   xmlns:svg="http://www.w3.org/2000/svg"
   xmlns="http://www.w3.org/2000/svg"
   xml:space="preserve"
   style="enable-background:new 0 0 384 384;"
   viewBox="0 0 384 384"
   y="0px"
   x="0px"
   id="Capa_1"
   version="1.1"><metadata
     id="metadata47"><rdf:RDF><cc:Work
         rdf:about=""><dc:format>image/svg+xml</dc:format><dc:type
           rdf:resource="http://purl.org/dc/dcmitype/StillImage" /><dc:title></dc:title></cc:Work></rdf:RDF></metadata><defs
     id="defs45" /><g
     transform="matrix(-1,0,0,1,384,0)"
     id="g10"><g
       id="g8"><g
         id="g6"><path
           id="path2"
           d="M 341.333,0 H 42.667 C 19.093,0 0,19.093 0,42.667 V 128 H 42.667 V 42.667 H 341.334 V 341.334 H 42.667 V 256 H 0 v 85.333 C 0,364.907 19.093,384 42.667,384 H 341.334 C 364.907,384 384,364.907 384,341.333 V 42.667 C 384,19.093 364.907,0 341.333,0 Z" /><polygon
           id="polygon4"
           points="181.333,298.667 288,192 181.333,85.333 151.147,115.52 206.293,170.667 0,170.667 0,213.333 206.293,213.333 151.147,268.48 " /></g></g></g><g
     id="g12" /><g
     id="g14" /><g
     id="g16" /><g
     id="g18" /><g
     id="g20" /><g
     id="g22" /><g
     id="g24" /><g
     id="g26" /><g
     id="g28" /><g
     id="g30" /><g
     id="g32" /><g
     id="g34" /><g
     id="g36" /><g
     id="g38" /><g
     id="g40" /></svg>